#!OML:ASF H:\MichaelJackson\Top Level 1\Subject 1\Session 1\male.ASF
:FULLY-SPECIFIED
:DEGREES
949
root 4.85283 15.9351 32.8769 -0.709933 8.76046 -14.1734
lowerback 22.3816 4.52986 -3.78781
upperback 7.27097 4.98138 -1.42453
thorax -4.6689 2.43334 -0.674073
lowerneck -1.70672 -7.42061 -2.90656
upperneck -6.50563 -9.62849 7.51696
head -1.22288 -4.89335 2.90327
rclavicle -3.81667e-014 7.63333e-014
rhumerus -41.3354 14.6471 -61.4278
rradius 75.2288
rwrist 4.91771
rhand -34.2105 -34.0266
rfingers 7.12502
rthumb -7.38274 -423.878
lclavicle -3.81667e-014 7.63333e-014
lhumerus -29.8384 18.0704 56.8942
lradius 51.7767
lwrist 17.3968
lhand -10.1038 5.9418
lfingers 7.12502
lthumb 15.8837 35.3104
rfemur -62.7166 1.56406 -5.86438
rtibia 49.1549
rfoot 10.0729 -8.71751
rtoes 26.9806
lfemur -35.4897 -13.0933 -2.01584
ltibia 60.2395
lfoot -21.7607 -9.25455
ltoes 34.8563
950
root 4.89416 15.979 32.9274 -1.06593 7.73652 -13.9814
lowerback 22.4764 4.55052 -3.59582
upperback 7.34086 5.04673 -1.34656
thorax -4.63421 2.46317 -0.718389
lowerneck -1.98904 -7.29121 -2.7814
upperneck -6.36926 -9.46227 7.34493
head -1.15382 -4.80314 2.80846
rclavicle -2.38542e-014 -3.02153e-014
rhumerus -41.0429 13.9493 -61.304
rradius 73.9292
rwrist 6.48915
rhand -33.9143 -35.0406
rfingers 7.12502
rthumb -7.09682 -424.902
lclavicle -2.38542e-014 -3.02153e-014
lhumerus -29.5821 17.4991 57.1213
lradius 52.1389
lwrist 17.7771
lhand -9.96469 5.81567
lfingers 7.12502
lthumb 16.0177 35.1735
rfemur -62.9789 2.1594 -6.93084
rtibia 42.9201
rfoot 8.52159 -9.76986
rtoes 24.7193
lfemur -33.9284 -12.8198 -2.45622
ltibia 59.3083
lfoot -22.1304 -8.90425
ltoes 34.5703
951
root 4.92972 16.0188 32.9777 -1.48329 6.74581 -13.7116
lowerback 22.6386 4.57631 -3.46736
upperback 7.44258 5.10053 -1.29883
thorax -4.60022 2.48711 -0.759933
lowerneck -2.25246 -7.16331 -2.7004
upperneck -6.25974 -9.29535 7.2314
head -1.09153 -4.71342 2.74305
rclavicle -1.90833e-014 0
rhumerus -40.7981 13.3261 -61.2254
rradius 72.8341
rwrist 8.01158
rhand -33.3838 -35.8537
rfingers 7.12502
rthumb -6.58474 -425.731
lclavicle -1.90833e-014 0
lhumerus -29.2744 16.9073 57.3551
lradius 52.4687
lwrist 18.0493
lhand -9.70694 5.73972
lfingers 7.12502
lthumb 16.2658 35.0774
rfemur -63.5296 1.74194 -6.72886
rtibia 37.7034
rfoot 7.11911 -9.68897
rtoes 20.6454
lfemur -32.3402 -12.1474 -3.12958
ltibia 58.4983
lfoot -22.5049 -8.38662
ltoes 34.1034
952
root 4.95817 16.055 33.0272 -1.99243 5.79051 -13.348
lowerback 22.8944 4.61138 -3.43382
upperback 7.57912 5.13914 -1.29068
thorax -4.57809 2.50311 -0.792058
lowerneck -2.47566 -7.0346 -2.63926
upperneck -6.19762 -9.12402 7.17543
head -1.04771 -4.62337 2.70402
rclavicle -3.81667e-014 2.38542e-014
rhumerus -40.589 12.7718 -61.217
rradius 71.9269
rwrist 9.44967
rhand -32.6092 -36.3589
rfingers 7.12502
rthumb -5.83692 -426.259
lclavicle -3.81667e-014 2.38542e-014
lhumerus -28.9355 16.281 57.5704
lradius 52.8026
lwrist 18.2498
lhand -9.35739 5.75028
lfingers 7.12502
lthumb 16.6024 35.0601
rfemur -64.5488 0.0343224 -4.57953
rtibia 33.9113
rfoot 5.84106 -7.90601
rtoes 14.328
lfemur -30.7208 -11.1764 -3.96384
ltibia 57.7913
lfoot -22.8194 -7.8665
ltoes 33.5105
953
root 4.9789 16.0877 33.0757 -2.60195 4.90236 -12.8471
lowerback 23.2467 4.64766 -3.53458
upperback 7.75453 5.14156 -1.34263
thorax -4.56521 2.50074 -0.809124
lowerneck -2.64409 -6.90301 -2.58448
upperneck -6.19864 -8.94486 7.1834
head -1.03041 -4.53202 2.69209
rclavicle -7.71285e-014 4.6118e-014
rhumerus -40.3891 12.2654 -61.3018
rradius 71.1898
rwrist 10.7597
rhand -31.5595 -36.4839
rfingers 7.12502
rthumb -4.82338 -426.409
lclavicle -7.71285e-014 4.6118e-014
lhumerus -28.5769 15.6238 57.7413
lradius 53.1599
lwrist 18.392
lhand -8.95506 5.85565
lfingers 7.12502
lthumb 16.9897 35.1326
rfemur -66.3497 -3.09959 0.0772673
rtibia 31.9407
rfoot 4.58787 -4.05043
rtoes 6.58189
lfemur -29.089 -10.0439 -4.92304
ltibia 57.1679
lfoot -22.998 -7.50525
ltoes 32.955
954
root 4.9912 16.1152 33.1244 -3.31345 4.08522 -12.2168
lowerback 23.682 4.68199 -3.76925
upperback 7.96647 5.10256 -1.45952
thorax -4.55578 2.4773 -0.814075
lowerneck -2.74524 -6.76823 -2.51472
upperneck -6.2679 -8.75795 7.24095
head -1.04514 -4.43997 2.69935
rclavicle 2.06736e-014 2.38542e-014
rhumerus -40.1756 11.7839 -61.4942
rradius 70.5962
rwrist 11.9113
rhand -30.2158 -36.1561
rfingers 7.12502
rthumb -3.52581 -426.107
lclavicle 2.06736e-014 2.38542e-014
lhumerus -28.2085 14.9382 57.8436
lradius 53.5385
lwrist 18.4934
lhand -8.52737 6.00548
lfingers 7.12502
lthumb 17.4013 35.2466
rfemur -69.2887 -7.2366 7.23621
rtibia 32.0078
rfoot 3.35547 1.48068
rtoes -0.572867
lfemur -27.4529 -8.83897 -5.93886
ltibia 56.6165
lfoot -23.0262 -7.40687
ltoes 32.5504
955
root 4.99579 16.1368 33.1746 -4.10595 3.35734 -11.4388
lowerback 24.1691 4.7092 -4.14647
upperback 8.20418 5.01257 -1.65069
thorax -4.54413 2.4281 -0.807432
lowerneck -2.77249 -6.63344 -2.42517
upperneck -6.39262 -8.56845 7.33291
head -1.08972 -4.34975 2.7196
rclavicle -1.59028e-015 -3.18055e-014
rhumerus -39.9486 11.3059 -61.7962
rradius 70.1304
rwrist 12.8968
rhand -28.5456 -35.365
rfingers 7.12502
rthumb -1.9129 -425.336
lclavicle -1.59028e-015 -3.18055e-014
lhumerus -27.8401 14.2254 57.8735
lradius 53.9176
lwrist 18.5699
lhand -8.14527 6.14461
lfingers 7.12502
lthumb 17.7691 35.3528
rfemur -73.3284 -11.2611 15.6618
rtibia 33.9931
rfoot 2.45926 7.06569
rtoes -5.44586
lfemur -25.8277 -7.62592 -7.00885
ltibia 56.1213
lfoot -22.9253 -7.57621
ltoes 32.2717
956
root 4.99413 16.1526 33.2271 -4.95013 2.74478 -10.537
lowerback 24.6755 4.72066 -4.63533
upperback 8.44933 4.86794 -1.906
thorax -4.53137 2.35161 -0.79273
lowerneck -2.72527 -6.50579 -2.32413
upperneck -6.54142 -8.38745 7.43962
head -1.15432 -4.26615 2.74656
rclavicle -1.19271e-014 2.38542e-014
rhumerus -39.7295 10.8023 -62.1885
rradius 69.7854
rwrist 13.7148
rhand -26.5213 -34.1219
rfingers 7.12502
rthumb 0.0422676 -424.102
lclavicle -1.19271e-014 2.38542e-014
lhumerus -27.4658 13.482 57.8479
lradius 54.2516
lwrist 18.6198
lhand -7.85003 6.23462
lfingers 7.12502
lthumb 18.0531 35.4168
rfemur -77.8697 -14.2163 23.6861
rtibia 37.5115
rfoot 2.09168 10.9917
rtoes -8.3185
lfemur -24.2324 -6.41034 -8.11293
ltibia 55.6628
lfoot -22.7283 -7.98408
ltoes 32.1002
957
root 4.98829 16.1648 33.282 -5.82287 2.28042 -9.5188
lowerback 25.1771 4.71187 -5.22206
upperback 8.68576 4.66707 -2.21084
thorax -4.52222 2.24726 -0.760141
lowerneck -2.61368 -6.39623 -2.22831
upperneck -6.66816 -8.23195 7.54083
head -1.22184 -4.19615 2.77424
rclavicle -9.46215e-014 2.06736e-014
rhumerus -39.552 10.2468 -62.6347
rradius 69.5625
rwrist 14.3686
rhand -24.0952 -32.4658
rfingers 7.12502
rthumb 2.38546 -422.432
lclavicle -9.46215e-014 2.06736e-014
lhumerus -27.0948 12.6936 57.8045
lradius 54.5141
lwrist 18.6426
lhand -7.65081 6.29695
lfingers 7.12502
lthumb 18.2448 35.4613
rfemur -82.2342 -15.9182 30.2224
rtibia 42.12
rfoot 2.04543 12.5762
rtoes -10.0768
lfemur -22.6706 -5.16392 -9.27397
ltibia 55.2084
lfoot -22.495 -8.54268
ltoes 31.949
958
root 4.98009 16.1751 33.3393 -6.69269 1.999 -8.42855
lowerback 25.6373 4.67308 -5.86097
upperback 8.90125 4.41226 -2.5387
thorax -4.51065 2.11667 -0.704875
lowerneck -2.46401 -6.31393 -2.16159
upperneck -6.71765 -8.11714 7.62102
head -1.26894 -4.1451 2.79858
rclavicle 2.38542e-014 2.8625e-014
rhumerus -39.4471 9.60868 -63.0909
rradius 69.4631
rwrist 14.8593
rhand -21.2049 -30.4696
rfingers 7.12502
rthumb 5.17654 -420.386
lclavicle 2.38542e-014 2.8625e-014
lhumerus -26.6956 11.8734 57.7985
lradius 54.6478
lwrist 18.6216
lhand -7.52859 6.30446
lfingers 7.12502
lthumb 18.3624 35.4578
rfemur -86.0935 -16.6779 35.068
rtibia 47.424
rfoot 2.19031 12.1862
rtoes -11.0018
lfemur -21.1541 -3.83595 -10.4748
ltibia 54.7323
lfoot -22.3045 -9.15392
ltoes 31.6257
